<svg xmlns="http://www.w3.org/2000/svg" viewBox="0 0 64 64">
  <rect width="64" height="64" rx="14" fill="#050705"/>
  <path fill="#50f59a" d="M20.883 38.456 9.907 27.39 5.122 32.215l4.785 4.824 3.63-3.66 2.562 2.583-6.192 6.243L0 32.215l9.907-9.99 13.538 13.648-2.562 2.583Zm17.23-17.396-2.562 2.583-10.976-11.067-4.785 4.825 3.63 3.66-2.562 2.582-6.192-6.242 9.909-9.99 13.538 13.649ZM25.73 43.366l2.562-2.583 10.976 11.067 4.784-4.824-3.63-3.66 2.562-2.584 6.192 6.243-9.908 9.99L25.73 43.366Zm17.254-17.397L53.96 37.036l4.785-4.824-4.785-4.825-3.63 3.66-2.562-2.582 6.192-6.243 9.907 9.99-9.907 9.99-13.538-13.65 2.562-2.583ZM30.79 35.963 19.79 47.025l4.785 4.824 3.63-3.66 2.562 2.583-6.192 6.242-9.908-9.99 13.538-13.648 2.585 2.587Zm18.386-17.961L35.638 31.651l-2.562-2.582 10.976-11.067-4.785-4.825-3.63 3.66-2.562-2.582 6.192-6.243 9.908 9.99Zm-18.41 3.751-9.82 9.902-2.562-2.583 9.82-9.902 2.562 2.583Zm-5.037 7.315 2.562-2.582 9.82 9.901-2.561 2.583-9.821-9.902Zm19.728 7.314-9.82 9.902-2.563-2.584 9.82-9.901 2.563 2.583ZM32 9.99 27.047 4.996 32 0l4.953 4.996L32 9.99Zm-4.953 49.014L32 54.008l4.953 4.996L32 64l-4.953-4.996Z"/>
</svg>
